<svg width="80" height="80" viewBox="0 0 80 80" fill="none" xmlns="http://www.w3.org/2000/svg">
<path d="M67.3022 40.828C66.7889 40.828 66.2756 40.8102 65.7622 40.8324C65.3933 40.848 65.3222 40.6835 65.3289 40.3502C65.4489 34.8835 64.0378 29.8391 61.1467 25.1991C58.88 21.5613 55.9089 18.628 52.2889 16.3591C49.78 14.7858 47.0644 13.6702 44.18 12.9991C43.6022 12.8635 43.5356 12.6324 43.6622 12.1191C43.88 11.2346 44.0467 10.3369 44.2067 9.43909C44.2689 9.08353 44.3778 8.97464 44.7622 9.06576C50.9622 10.5258 56.2756 13.548 60.6622 18.1569C64.3733 22.0569 66.9089 26.6346 68.2844 31.8435C69 34.548 69.28 37.3102 69.3333 40.1013C69.3444 40.6924 69.1622 40.9013 68.5733 40.8346C68.1556 40.7902 67.7267 40.828 67.3022 40.828Z" fill="#FF7528"/>
<path d="M34.9444 12.0019C35.0533 12.3397 34.8133 12.3797 34.5444 12.4086C32.2267 12.6575 29.9844 13.2197 27.8178 14.0686C23.4578 15.773 19.7578 18.4108 16.7267 21.9819C14.44 24.6775 12.7222 27.6975 11.6133 31.053C11.4444 31.5641 11.2667 31.7219 10.7267 31.5152C9.87554 31.1908 8.99776 30.933 8.12221 30.6819C7.73109 30.5686 7.66443 30.4375 7.79776 30.0263C9.60665 24.5197 12.7133 19.8797 17.0555 16.053C20.7667 12.7841 25.0355 10.5597 29.7955 9.27524C31.2133 8.89302 32.6644 8.63746 34.1311 8.47746C34.4689 8.44191 34.5667 8.54413 34.5978 8.84413C34.7067 9.89079 34.8267 10.9308 34.9444 12.0019Z" fill="white"/>
<path d="M45.3444 70.3748C45.071 70.457 45.0622 70.2303 45.0133 70.0748C44.6999 69.0792 44.4088 68.0726 44.0755 67.0837C43.9444 66.6948 44.0621 66.5992 44.4288 66.5103C48.2666 65.5681 51.7355 63.8637 54.8355 61.4148C58.7133 58.3526 61.5688 54.5215 63.4222 49.9459C63.6288 49.4348 63.7999 48.9059 63.9688 48.3792C64.0933 47.997 64.2155 47.7815 64.711 47.9837C65.6155 48.3526 66.5488 48.6548 67.4866 48.937C67.8933 49.0592 67.8622 49.2303 67.7555 49.5615C66.5044 53.3948 64.5733 56.8548 61.991 59.9392C58.4755 64.1392 54.1444 67.2237 49.0399 69.2126C47.831 69.6815 46.5955 70.057 45.3444 70.3748Z" fill="white"/>
<path d="M10.231 40.2381C10.3999 47.5492 13.011 53.8537 18.1132 59.107C18.3999 59.4025 18.4221 59.5403 18.091 59.8137C17.3199 60.4514 16.5777 61.127 15.8444 61.8114C15.5621 62.0737 15.4088 62.0314 15.1488 61.7625C10.4288 56.8314 7.54213 51.0003 6.54213 44.2492C6.23769 42.1937 6.11769 40.127 6.31991 38.047C6.35546 37.6803 6.43102 37.5381 6.82213 37.5937C7.79324 37.7337 8.76657 37.8759 9.74213 37.9426C10.2244 37.9759 10.2555 38.1848 10.2355 38.5692C10.2088 39.1248 10.231 39.6826 10.231 40.2381Z" fill="white"/>
<path d="M33.929 71.0908C29.9956 70.5953 26.2845 69.4197 22.8178 67.4819C22.4934 67.3019 22.4045 67.1908 22.6334 66.8508C23.1934 66.0197 23.7201 65.1642 24.2423 64.3086C24.4067 64.0375 24.5356 63.9286 24.8667 64.113C27.8201 65.7664 31.0045 66.7219 34.3512 67.1486C34.8378 67.2108 34.929 67.3753 34.8734 67.8175C34.7623 68.6997 34.6956 69.5908 34.6201 70.4775C34.5623 71.1442 34.5712 71.1464 33.929 71.0908Z" fill="#FF7528"/>
<path fill-rule="evenodd" clip-rule="evenodd" d="M37.5889 60.4531C48.8466 60.4798 57.9266 51.3531 57.9355 40.1043C57.9444 28.9243 48.7422 19.7376 37.5577 19.7598C26.3666 19.782 17.22 28.8909 17.2466 40.0909C17.2733 51.5398 26.4311 60.4265 37.5889 60.4531ZM20.7177 40.0889C20.711 49.38 28.2955 56.9689 37.5844 56.9711C46.8532 56.9734 54.4332 49.4156 54.4488 40.16C54.4644 30.8423 46.9221 23.2645 37.6221 23.2578C28.2999 23.2511 20.7244 30.7956 20.7177 40.0889Z" fill="white"/>
<path d="M42.5288 40.9378C42.4355 40.8911 42.3399 40.8444 42.1577 40.7533C42.5622 40.6067 42.8888 40.6755 43.2088 40.6978C43.031 40.9155 42.6977 40.6933 42.5288 40.9378Z" fill="#AFA1E7"/>
<path fill-rule="evenodd" clip-rule="evenodd" d="M42.5289 40.9377C44.9622 42.2466 45.8111 45.1866 44.4956 47.7577C43.0956 50.4955 40.2467 51.8044 37.2622 51.0466C36.8111 50.9311 36.6867 51.0578 36.5689 51.4555C36.2511 52.5355 36.2333 52.5311 35.1711 52.2155C35.0374 52.1758 34.9042 52.1333 34.771 52.0908L34.771 52.0908L34.7709 52.0908C34.4572 51.9907 34.1436 51.8906 33.8222 51.8266C33.3978 51.7422 33.3489 51.5489 33.4511 51.1689C33.803 49.8648 33.7936 49.8621 32.5183 49.5025L32.4778 49.4911C32.1644 49.4022 32.0156 49.4444 31.9622 49.7644C31.9578 49.7866 31.9533 49.8089 31.9467 49.8289C31.7354 50.4605 31.6298 50.776 31.4173 50.8875C31.2051 50.9987 30.8862 50.9065 30.2489 50.7222C30.2306 50.7164 30.2119 50.7119 30.1931 50.7074C30.1686 50.7014 30.1439 50.6955 30.12 50.6866C29.9773 50.6395 29.8191 50.605 29.6609 50.5705L29.6609 50.5705C29.3043 50.4927 28.9481 50.415 28.7711 50.1933C28.5752 49.9476 28.7242 49.6039 28.8725 49.2621C28.9361 49.1154 28.9995 48.9692 29.0356 48.8311C29.12 48.5044 29.0867 48.3555 28.7333 48.2577C28.4027 48.168 28.0771 48.0569 27.7515 47.9458C27.4643 47.8479 27.1772 47.7499 26.8867 47.6666C26.5689 47.5755 26.4533 47.4733 26.5667 47.1133C26.8667 46.1577 27.1289 45.1889 27.3889 44.22C27.4822 43.8689 27.6067 43.7689 27.9933 43.8977C29.2252 44.3121 29.2311 44.2912 29.5901 43.027L29.5933 43.0155C29.7825 42.3488 29.9714 41.6819 30.1603 41.0149C31.0165 37.992 31.873 34.9682 32.7578 31.9533C32.9156 31.4133 32.7622 31.2422 32.2911 31.1489C32.187 31.1276 32.0861 31.0918 31.985 31.056C31.8961 31.0245 31.807 30.9929 31.7156 30.9711C31.3956 30.8955 31.3578 30.72 31.4444 30.4289C31.74 29.4222 32.0289 28.4155 32.2911 27.4C32.3867 27.0289 32.5467 27.0244 32.86 27.1333C33.2054 27.2559 33.5565 27.3623 33.9075 27.4686C34.2182 27.5627 34.5288 27.6568 34.8356 27.7622C35.1733 27.8777 35.3067 27.7733 35.4133 27.4489C35.4551 27.3242 35.4785 27.179 35.5019 27.0338C35.5557 26.7002 35.6095 26.366 35.8867 26.2777C36.1307 26.201 36.4374 26.3236 36.7443 26.4463C36.8817 26.5012 37.0192 26.5562 37.1511 26.5933C37.1841 26.6026 37.217 26.6112 37.2498 26.6199C37.3033 26.6339 37.3565 26.6479 37.4089 26.6644L37.4104 26.6649C38.6622 27.0689 38.6776 27.0738 38.3111 28.3622C38.2 28.7511 38.2756 28.9111 38.6667 29.0355L38.709 29.049C39.9048 29.4292 39.9218 29.4346 40.2689 28.2089C40.3911 27.7777 40.5422 27.6244 41.0022 27.7911C41.5671 27.9942 42.1488 28.1535 42.7313 28.3131L42.7316 28.3132C42.8181 28.3369 42.9046 28.3606 42.9911 28.3844C43.2867 28.4666 43.3867 28.5911 43.2822 28.9089C43.2491 29.0083 43.2092 29.1118 43.1688 29.2168L43.1688 29.2168C43.0304 29.5764 42.8854 29.9532 42.98 30.2422C43.0673 30.5101 43.3933 30.6119 43.7223 30.7146C43.8789 30.7635 44.0363 30.8126 44.1689 30.88C47.5311 32.5866 48.1711 37.6489 45.2978 39.8511C44.6822 40.3222 43.9778 40.5844 43.2133 40.6955C43.0746 40.7441 42.9331 40.7412 42.7912 40.7383C42.7127 40.7367 42.634 40.7351 42.5556 40.7422C42.3332 40.7613 42.404 40.8097 42.4732 40.8571C42.5168 40.8869 42.5598 40.9163 42.5289 40.9377ZM40.8444 44.7374C40.7621 46.3841 39.2888 47.5463 37.6955 47.1107C36.7513 46.8524 35.8253 46.5299 34.8993 46.2074L34.8993 46.2074L34.899 46.2073C34.415 46.0387 33.931 45.8701 33.4444 45.7107C33.131 45.6085 33.0955 45.4285 33.1799 45.1507C33.5888 43.7841 33.991 42.4174 34.3888 41.0485C34.4733 40.7574 34.6021 40.6507 34.9199 40.7618C35.4894 40.9616 36.0614 41.1538 36.6333 41.3459L36.6334 41.346C37.5186 41.6435 38.4038 41.9409 39.2799 42.2663C40.3288 42.6574 40.8999 43.6263 40.8444 44.7374ZM39.2511 38.3537C39.5223 38.447 39.8023 38.5382 40.0689 38.507C41.2778 38.4893 42.2111 37.727 42.4289 36.6004C42.6467 35.4715 42.0845 34.4537 40.92 34.0293C40.2183 33.7743 39.5069 33.547 38.7953 33.3196C38.2787 33.1545 37.7621 32.9894 37.2489 32.8137C36.9023 32.6959 36.7778 32.8048 36.6867 33.127C36.6712 33.1818 36.6558 33.2365 36.6403 33.2913C36.3359 34.37 36.0311 35.4499 35.68 36.5137C35.54 36.9359 35.6489 37.1048 36.0378 37.2359C36.6396 37.4374 37.2379 37.6485 37.8362 37.8597C38.3073 38.0259 38.7783 38.1922 39.2511 38.3537Z" fill="white"/>
</svg>
